<svg id="Layer_1" data-name="Layer 1" xmlns="http://www.w3.org/2000/svg" viewBox="0 0 685.78 572.84"><defs><style>.cls-1{fill:#231f20;}.cls-2,.cls-3{font-size:195.7px;font-family:ArialRoundedMTBold, Arial Rounded MT Bold;}.cls-2{fill:#e93200;}.cls-3{fill:#3737f4;}</style></defs><path class="cls-1" d="M666.65,686.42a18.33,18.33,0,0,1-6.41-1.15,18.54,18.54,0,0,1-10.37-9.65l-30-62-33.5,29.67a17.54,17.54,0,0,1-29.19-13.12v-197a17.74,17.74,0,0,1,29.41-13.37l150.19,131a17.91,17.91,0,0,1-10.46,31.35L682,585.32l30.44,59.76a18.8,18.8,0,0,1-8.61,25.48l-29.16,14A18.44,18.44,0,0,1,666.65,686.42ZM640.39,601.7,669.1,661l20-9.62-29.4-57.69a21.91,21.91,0,0,1,17.92-31.79l33.15-2.43L580.83,446.17V616.52l25-22.18a21.91,21.91,0,0,1,34.51,7.36Zm-69.75,23.84,0,0Zm51-13.5h0Z" transform="translate(-57.11 -113.58)"/><path class="cls-1" d="M510,406.25H105.5a48.44,48.44,0,0,1-48.39-48.39V162a48.45,48.45,0,0,1,48.39-48.39H510A48.45,48.45,0,0,1,558.4,162V357.86A48.44,48.44,0,0,1,510,406.25Zm-404.51-269A24.74,24.74,0,0,0,80.79,162V357.86a24.74,24.74,0,0,0,24.71,24.71H510a24.74,24.74,0,0,0,24.71-24.71V162A24.74,24.74,0,0,0,510,137.26Z" transform="translate(-57.11 -113.58)"/><path d="M353.56,310.64a11.85,11.85,0,0,1-10.9-7.22l-30.17-71-30.17,71a11.84,11.84,0,1,1-21.79-9.26l40.67-95.68a12.24,12.24,0,0,1,11.29-7.41h0a12.23,12.23,0,0,1,11.28,7.44l40.67,95.65a11.86,11.86,0,0,1-10.9,16.48ZM302,207.75a.08.08,0,0,0,0,0Z" transform="translate(-57.11 -113.58)"/><text class="cls-2" transform="translate(70.32 195.91)">p</text><text class="cls-3" transform="translate(314.22 195.91)">q</text></svg>